<svg preserveAspectRatio="none" overflow="visible" style="display: block;" width="13.3588" height="16.6679" viewBox="0 0 13.3588 16.6679" fill="none" xmlns="http://www.w3.org/2000/svg">
<path id="icon / phone" fill-rule="evenodd" clip-rule="evenodd" d="M3.97266 5.35125L3.98964 5.33479C4.48959 5.71622 5.18272 5.82099 5.78256 5.54925L7.21461 4.90049C8.05306 4.52065 8.39175 3.54901 7.97109 2.73028L7.05478 0.946845C6.63412 0.128113 5.61342 -0.227678 4.77497 0.152162L3.34292 0.800922C2.8574 1.02087 2.53946 1.43926 2.43951 1.91149C2.368 1.93144 2.2985 1.96377 2.2334 2.00966C1.1729 2.75714 0.440359 3.9611 0.156463 5.455C-0.187763 7.26635 -0.0203368 9.58356 1.22966 11.6669C2.47966 13.7502 3.56125 14.8205 5.27221 15.7631C6.67717 16.5371 8.13683 16.8126 9.4385 16.5654C9.48787 16.556 9.53419 16.5421 9.57732 16.5241C10.0166 16.7112 10.5289 16.7232 10.9869 16.5157L12.4216 15.8658C13.26 15.4859 13.5987 14.5143 13.1781 13.6956L12.2602 11.9092C11.8396 11.0905 10.8189 10.7347 9.98044 11.1145L8.54579 11.7645C7.9621 12.0289 7.62061 12.5801 7.6089 13.1669C7.06239 13.1513 6.48724 12.9869 5.92786 12.6787C4.98721 12.1605 4.16601 11.277 3.64028 10.2177C3.11454 9.1583 2.9261 8.00737 3.11534 7.01152C3.24458 6.3315 3.5429 5.76075 3.97266 5.35125Z" fill="#858585"/>
</svg>
