<svg width="24" height="24" viewBox="0 0 24 24" fill="none" xmlns="http://www.w3.org/2000/svg">
<rect x="4" y="6" width="16" height="13" fill="white"/>
<path fill-rule="evenodd" clip-rule="evenodd" d="M14.0997 4.64565H18.5484C19.653 4.64565 20.5484 5.54108 20.5484 6.64565V18.0003C20.5484 19.1048 19.653 20.0003 18.5484 20.0003H5C3.89543 20.0003 3 19.1048 3 18.0003V6.64565C3 5.54108 3.89543 4.64565 5 4.64565H9.44468C9.7833 3.68693 10.6975 3 11.7722 3C12.8468 3 13.7611 3.68693 14.0997 4.64565ZM11.7722 7.93541C12.9 7.93541 13.8511 7.17889 14.1456 6.14565H18.5484C18.8245 6.14565 19.0484 6.36951 19.0484 6.64565V18.0003C19.0484 18.2764 18.8245 18.5003 18.5484 18.5003H5C4.72386 18.5003 4.5 18.2764 4.5 18.0003V6.64565C4.5 6.36951 4.72386 6.14565 5 6.14565H9.39874C9.69332 7.17889 10.6444 7.93541 11.7722 7.93541ZM8.39009 8.24668C8.41913 8.15271 8.55214 8.15271 8.58118 8.24668L9.2406 10.3806C9.25354 10.4225 9.29228 10.451 9.33614 10.451H11.4803C11.576 10.451 11.617 10.5724 11.541 10.6305L9.79786 11.9622C9.76455 11.9876 9.75065 12.0311 9.76302 12.0711L10.4268 14.2191C10.4555 14.3121 10.3479 14.3872 10.2705 14.3281L8.54634 13.011C8.5105 12.9836 8.46077 12.9836 8.42493 13.011L6.70072 14.3281C6.62335 14.3872 6.51573 14.3122 6.54448 14.2191L7.20825 12.0711C7.22062 12.0311 7.20672 11.9876 7.17341 11.9622L5.43024 10.6305C5.35423 10.5724 5.39529 10.451 5.49095 10.451H7.63513C7.67899 10.451 7.71773 10.4225 7.73067 10.3806L8.39009 8.24668ZM13.9695 11.2262H17.2598V9.97617L13.9695 9.97617V11.2262ZM17.2589 16.7089H10.6782V15.2089H17.2589V16.7089ZM12.8738 13.9675H17.2609V12.7175H12.8738V13.9675Z" fill="#EB5514"/>
</svg>
